<svg xmlns="http://www.w3.org/2000/svg" width="32.239" height="23.59" viewBox="0 0 32.239 23.59">
  <g id="choreo-logo-icon" transform="translate(-48 27)">
    <path id="path-1" d="M27.128,0a5.111,5.111,0,0,1,5.107,4.9l0,.216V18.479a5.111,5.111,0,0,1-4.9,5.107l-.216,0H13.761a5.111,5.111,0,0,1-5.107-4.9l0-.216v-5.09H5.4A3.788,3.788,0,0,1,1.576,9.821l0-.167V5.239a2.752,2.752,0,1,1,2.361,0V9.632A1.417,1.417,0,0,0,5.281,11l.122,0H8.649v-5.9A5.111,5.111,0,0,1,13.545,0l.216,0Zm0,2.359H13.761a2.752,2.752,0,0,0-2.747,2.584l-.005.168V18.479a2.752,2.752,0,0,0,2.585,2.747l.168.005H27.128a2.752,2.752,0,0,0,2.747-2.585l.005-.168V5.111A2.752,2.752,0,0,0,27.128,2.359ZM20.707,6.291A5.833,5.833,0,0,1,24.184,7.3a4.233,4.233,0,0,1,1.765,2.3.975.975,0,0,1-.719,1.187,1.139,1.139,0,0,1-1.41-.608,2.583,2.583,0,0,0-1.091-1.351,3.537,3.537,0,0,0-5.552,2.945,3.51,3.51,0,0,0,1,2.5,3.366,3.366,0,0,0,2.557,1.046,3.591,3.591,0,0,0,1.99-.548,2.452,2.452,0,0,0,1.091-1.32,1.143,1.143,0,0,1,1.292-.57A1.089,1.089,0,0,1,25.938,14a4.25,4.25,0,0,1-1.744,2.265A5.791,5.791,0,0,1,20.728,17.3a5.746,5.746,0,0,1-4.14-1.584,5.22,5.22,0,0,1-1.648-3.93,5.211,5.211,0,0,1,1.637-3.92A5.738,5.738,0,0,1,20.707,6.291Z" transform="translate(48 -27)" fill="#5567d5"/>
  </g>
</svg>
