<svg width="24" height="24" viewBox="0 0 24 24" fill="none" xmlns="http://www.w3.org/2000/svg">
<path fill-rule="evenodd" clip-rule="evenodd" d="M18.366 5.58439C16.9353 4.03398 14.516 3.93458 12.9625 5.36238C11.4089 6.79018 11.3093 9.2045 12.74 10.7549C14.1707 12.3053 16.59 12.4047 18.1435 10.9769C19.6971 9.54912 19.7967 7.1348 18.366 5.58439ZM13.9892 6.47504C14.927 5.61315 16.3874 5.67316 17.2511 6.60906C18.1147 7.54497 18.0546 9.00237 17.1168 9.86426C16.179 10.7261 14.7186 10.6661 13.8549 9.73024C12.9913 8.79433 13.0514 7.33693 13.9892 6.47504Z" fill="black"/>
<path fill-rule="evenodd" clip-rule="evenodd" d="M19.4391 14.6395C24.8185 9.69564 24.369 3.77281 23.4015 1.33028C23.3675 1.24346 23.3176 1.16273 23.2532 1.09294C23.2058 1.04153 23.1506 0.996064 23.0882 0.958462C23.0687 0.946719 23.0488 0.935861 23.0283 0.925916C20.6686 -0.237175 14.7907 -1.17109 9.41134 3.77277C9.25528 3.91619 9.10132 4.05855 8.94945 4.19979C5.82653 3.63435 2.80284 5.32031 0.942395 6.76942C-0.301723 7.73847 -0.250578 9.47621 0.723986 10.5323L1.79559 11.6936C1.50983 12.0456 1.26733 12.3567 1.06741 12.6236C0.556449 13.3056 0.651861 14.2184 1.196 14.8081L7.74336 21.9032C8.28751 22.4929 9.19126 22.6628 9.91439 22.2107C10.1973 22.0338 10.528 21.8182 10.903 21.5629L12.6302 23.4346C13.2525 24.1089 14.3446 24.2247 15.0643 23.5382C15.9785 22.6662 17.0773 21.3893 17.8821 19.8735C18.6281 18.4683 19.1454 16.8108 18.9747 15.0638C19.1283 14.9243 19.2831 14.7829 19.4391 14.6395ZM13.7451 22.4099L12.1508 20.6822C13.5628 19.6535 15.3616 18.2421 17.4507 16.4204C17.339 17.3663 17.0055 18.2937 16.5427 19.1653C15.8333 20.5015 14.8479 21.6522 14.017 22.4447C13.9849 22.4754 13.9463 22.4894 13.8994 22.4867C13.8494 22.4838 13.7919 22.4606 13.7451 22.4099ZM2.77765 10.5249C3.92078 9.20544 5.47766 7.53292 7.46793 5.60548C5.40217 5.68127 3.36503 6.80121 1.87497 7.96183C1.43676 8.30315 1.36781 8.99711 1.83893 9.50764L2.77765 10.5249ZM8.8583 20.8785L2.31095 13.7834C2.22689 13.6923 2.23703 13.5884 2.28135 13.5293C3.41543 12.0154 6.08187 8.88898 10.4381 4.88543C15.0689 0.629581 20.0096 1.27761 22.0913 2.16071C22.8021 4.30375 23.0432 9.27098 18.4124 13.5268C14.0561 17.5304 10.7147 19.9254 9.10968 20.9289C9.04696 20.9681 8.94236 20.9696 8.8583 20.8785Z" fill="black"/>
<path d="M2.62234 19.0017C2.93022 18.7187 2.94996 18.2403 2.66642 17.933C2.38289 17.6257 1.90345 17.606 1.59557 17.889C0.693244 18.7183 0.33785 19.9851 0.677555 21.1614L0.883522 21.8746C0.88757 21.8892 0.892056 21.9037 0.896965 21.918C0.931914 22.0203 0.987018 22.1106 1.05652 22.1858C1.1259 22.2611 1.2116 22.3234 1.31092 22.3666C1.3248 22.3726 1.33888 22.3783 1.35312 22.3835L2.04842 22.647C3.19519 23.0815 4.48956 22.8322 5.39189 22.0029C5.69977 21.72 5.71951 21.2415 5.43598 20.9343C5.15244 20.627 4.67301 20.6073 4.36512 20.8903C3.88511 21.3314 3.19653 21.464 2.58647 21.2329L2.23738 21.1006L2.13397 20.7425C1.95326 20.1168 2.14232 19.4428 2.62234 19.0017Z" fill="black"/>
</svg>
