<?xml version="1.0" encoding="UTF-8"?>
<svg width="16px" height="16px" viewBox="0 0 16 16" version="1.1" xmlns="http://www.w3.org/2000/svg" xmlns:xlink="http://www.w3.org/1999/xlink">
    <title>E744DD54-4AD4-4DBF-A596-84B6FB4EC06D</title>
    <defs>
        <path d="M11,7.99360578e-14 C12.1045695,7.99360578e-14 13,0.8954305 13,2 L13.0006859,5.34165389 C12.6790957,5.22794388 12.3449188,5.1408733 12.0008069,5.08309386 L12,2 C12,1.48716416 11.6139598,1.06449284 11.1166211,1.00672773 L11,1 L2,1 C1.48716416,1 1.06449284,1.38604019 1.00672773,1.88337887 L1,2 L1,14 C1,14.5128358 1.38604019,14.9355072 1.88337887,14.9932723 L2,15 L6.52856479,15.0008689 C6.86891775,15.3809934 7.25703086,15.7174621 7.6834702,16.0008411 L2,16 C0.8954305,16 2.66453526e-14,15.1045695 2.66453526e-14,14 L2.66453526e-14,2 C2.66453526e-14,0.8954305 0.8954305,7.99360578e-14 2,7.99360578e-14 L11,7.99360578e-14 Z M11,6 C13.7614237,6 16,8.23857625 16,11 C16,13.7614237 13.7614237,16 11,16 C8.23857625,16 6,13.7614237 6,11 C6,8.23857625 8.23857625,6 11,6 Z M11,8.5 C10.7545401,8.5 10.5503916,8.67687516 10.5080557,8.91012437 L10.5,9 L10.4991048,11.789 L9.71765823,11 L9.64841035,10.9421445 C9.45354221,10.8071485 9.1841178,10.8264336 9.01055145,11 C8.8369851,11.1735664 8.81769995,11.4429908 8.952696,11.6378589 L9.01055145,11.7071068 L11,13.7071068 L13.0121908,11.7071068 L13.0700463,11.6378589 C13.1881678,11.4673493 13.1881678,11.2397575 13.0700463,11.0692479 L13.0121908,11 L12.9429429,10.9421445 C12.7724333,10.824023 12.5448415,10.824023 12.3743319,10.9421445 L12.305084,11 L11.4991048,11.798 L11.5,9 L11.4919443,8.91012437 C11.4496084,8.67687516 11.2454599,8.5 11,8.5 Z M3.5,10 C3.77614237,10 4,10.2238576 4,10.5 C4,10.7761424 3.77614237,11 3.5,11 C3.22385763,11 3,10.7761424 3,10.5 C3,10.2238576 3.22385763,10 3.5,10 Z M4.5,7 C4.77614237,7 5,7.22385763 5,7.5 C5,7.77614237 4.77614237,8 4.5,8 L3.5,8 C3.22385763,8 3,7.77614237 3,7.5 C3,7.22385763 3.22385763,7 3.5,7 L4.5,7 Z M7.5,4 C7.77614237,4 8,4.22385763 8,4.5 C8,4.77614237 7.77614237,5 7.5,5 L3.5,5 C3.22385763,5 3,4.77614237 3,4.5 C3,4.22385763 3.22385763,4 3.5,4 L7.5,4 Z" id="path-1"></path>
    </defs>
    <g id="Page-1" stroke="none" stroke-width="1" fill="none" fill-rule="evenodd">
        <g id="Insights-Traffic" transform="translate(-1273.000000, -225.000000)">
            <g id="Icon/User" transform="translate(1273.000000, 225.000000)">
                <mask id="mask-2" fill="white">
                    <use xlink:href="#path-1"></use>
                </mask>
                <use id="Combined-Shape" fill="#8D91A3" fill-rule="nonzero" xlink:href="#path-1"></use>
            </g>
        </g>
    </g>
</svg>