<?xml version="1.0" encoding="UTF-8"?>
<svg width="14px" height="12px" viewBox="0 0 14 12" version="1.1" xmlns="http://www.w3.org/2000/svg" xmlns:xlink="http://www.w3.org/1999/xlink">
    <title>347D8292-5FE0-48F6-96AD-17AB2BCD26B6</title>
    <g id="Apps" stroke="none" stroke-width="1" fill="none" fill-rule="evenodd">
        <g id="apps-settings" transform="translate(-1194.000000, -220.000000)">
            <g id="popup" transform="translate(1172.000000, 80.000000)">
                <g id="Icon/Controls/Exit" transform="translate(22.750000, 140.000000)">
                    <path d="M0.5,11.7518416 C0.5,12.165038 0.833473175,12.5 1.25065378,12.5 L11.749346,12.5 C12.1639205,12.5 12.5,12.1652665 12.5,11.7518416 L12.5,6.49815849 C12.5,6.08496196 12.1671012,5.75 11.75,5.75 C11.3357863,5.75 10.5,6.07841101 10.5,6.50219698 L10.5,10.5 L2.5,10.5 L2.5,6.50219698 C2.5,6.08677007 1.6671014,5.75 1.25,5.75 C0.835786475,5.75 0.5,6.08473355 0.5,6.49815849 L0.5,11.7518416 Z M7.5,6.75 L7.5,3.5 L7.5,3.5 L9.75078225,3.5 C10.164564,3.5 10.2645952,3.26459503 9.970566,2.97056596 L6.5,-0.5 L3.02943408,2.97056596 C2.7370357,3.26296431 2.83199522,3.5 3.24921745,3.5 L5.5,3.5 L5.5,6.75 C5.5,7.30228475 5.94771525,7.75 6.5,7.75 C7.05228475,7.75 7.5,7.30228475 7.5,6.75 Z" id="path-1"></path>
                    <use id="Shape" fill="#D1D6E1" fill-rule="nonzero" transform="translate(6.500000, 6.000000) rotate(-90.000000) translate(-6.500000, -6.000000)" xlink:href="#path-1"></use>
                </g>
            </g>
        </g>
    </g>
</svg>
