<?xml version="1.0" encoding="utf-8"?>
<!-- Generator: Adobe Illustrator 27.0.0, SVG Export Plug-In . SVG Version: 6.00 Build 0)  -->
<svg version="1.1" id="Layer_1" xmlns="http://www.w3.org/2000/svg" xmlns:xlink="http://www.w3.org/1999/xlink" x="0px" y="0px"
	 viewBox="0 0 16 16" style="enable-background:new 0 0 16 16;" xml:space="preserve">
<style type="text/css">
	.st0{fill:#5567D5;}
</style>
<path class="st0" d="M6.1854186,2.7512298c1.2085056-0.1820409,2.4239421-0.1777186,3.6451602,0.0015187
	c0.0260687-0.0573409,0.0493088-0.1121199,0.0755081-0.1654444C10.010129,2.37554,10.116313,2.1648178,10.2188473,1.9523314
	c0.0249414-0.0516884,0.0581341-0.0625126,0.1111984-0.0528829c1.0955238,0.1988086,2.1522179,0.5225669,3.1661959,0.983375
	c0.0355768,0.0161686,0.0712118,0.0448165,0.0929499,0.0770113c0.8135319,1.2048671,1.4499559,2.4955423,1.8671694,3.8901308
	c0.2158146,0.7213912,0.3667088,1.4568362,0.4515457,2.2059369c0.0832872,0.7354403,0.1116114,1.4724226,0.0787067,2.2115135
	c-0.0112152,0.2519236-0.0331707,0.5034428-0.0551262,0.7547197c-0.0026884,0.0307636-0.029561,0.0674257-0.0559063,0.0869265
	c-0.5030651,0.3723488-1.031806,0.7041273-1.5821419,1.0023699c-0.7492428,0.4060345-1.5347071,0.7246609-2.3449097,0.9852562
	c-0.0529327,0.0170269-0.0850792,0.0068703-0.1170235-0.0387821c-0.2842951-0.4062815-0.5436621-0.8277092-0.7756062-1.2659807
	c-0.0362873-0.0685663-0.0286045-0.089529,0.0475883-0.1186991c0.4006729-0.1534052,0.786253-0.3384056,1.1593018-0.5500164
	c0.1010227-0.0573044,0.103899-0.0813427,0.0137901-0.1514015c-0.0584669-0.0454597-0.1186085-0.0889826-0.1746883-0.1372204
	c-0.0406065-0.0349264-0.0764246-0.0353346-0.1260157-0.0157537c-0.3763714,0.1486073-0.7495241,0.3073406-1.1325483,0.436655
	c-0.5621843,0.1898012-1.1422329,0.3089075-1.7318954,0.3797789c-0.5485554,0.0659313-1.0984755,0.0831785-1.6498537,0.0513163
	c-0.7448025-0.0430374-1.4736986-0.1779623-2.1876049-0.3919725c-0.4258766-0.1276646-0.8429394-0.2810125-1.2460794-0.4695644
	c-0.0586436-0.0274277-0.101661-0.0264568-0.1503429,0.016921c-0.0551631,0.0491495-0.1168349,0.0909214-0.1745765,0.1372709
	c-0.0699444,0.0561466-0.0671332,0.0898943,0.0099742,0.1336222c0.3567104,0.2022886,0.723691,0.3833866,1.1049843,0.5349236
	c0.1780787,0.0707741,0.1626725,0.055048,0.0799494,0.2129145c-0.2183647,0.4167271-0.4636483,0.8167219-0.7393179,1.1981897
	c-0.0331349,0.0458517-0.0644751,0.0534611-0.1170807,0.0368967c-1.4187474-0.4467096-2.7280722-1.1088953-3.9252372-1.9916868
	c-0.0255585-0.0188475-0.0479089-0.0578098-0.0507889-0.0893049c-0.0531656-0.5814228-0.0781898-1.163763-0.0590787-1.7479
	c0.0178033-0.5441599,0.0617681-1.0855789,0.1423587-1.6241589C0.3125649,7.547895,0.6157026,6.4928894,1.0446945,5.4728422
	c0.3718308-0.884131,0.8347267-1.7184319,1.3656996-2.5158563c0.0202999-0.0304873,0.0540183-0.0576231,0.0875921-0.0728781
	c0.8965549-0.407372,1.8277965-0.7093594,2.7911577-0.9125535C5.4158168,1.9448358,5.5437799,1.924276,5.6707201,1.8987504
	c0.0503111-0.0101171,0.0819006,0.0029368,0.1060848,0.0509943C5.9097738,2.2139709,6.0452423,2.4769392,6.1854186,2.7512298z
	 M9.2234459,8.6459074C9.2178907,9.0535469,9.3930473,9.487009,9.7178516,9.8237019
	c0.5148935,0.533741,1.3803816,0.5341692,1.8980684,0.002862c0.3323603-0.3411045,0.4851542-0.752182,0.486804-1.223979
	c0.0016565-0.473753-0.1549845-0.8855329-0.4949446-1.2183886c-0.5366583-0.5254421-1.3606224-0.5189376-1.8906298,0.0099187
	C9.3833389,7.7272034,9.2337217,8.1359997,9.2234459,8.6459074z M6.7857499,8.6039267
	C6.7840624,8.571579,6.7821536,8.5392427,6.7807236,8.5068827C6.759521,8.0269489,6.575191,7.6234231,6.2070155,7.3120055
	c-0.553616-0.4682698-1.372026-0.4320073-1.8877015,0.1666822c-0.3897099,0.452445-0.494797,0.9856849-0.3576446,1.5601544
	c0.1103706,0.4622936,0.3687453,0.8291569,0.8003259,1.0456772c0.4392433,0.2203646,0.8842688,0.1989985,1.2941246-0.0694294
	C6.5582776,9.6862116,6.7737322,9.1938457,6.7857499,8.6039267z"/>
</svg>
