<?xml version="1.0" encoding="UTF-8"?>
<svg width="18px" height="18px" viewBox="0 0 18 18" version="1.1" xmlns="http://www.w3.org/2000/svg" xmlns:xlink="http://www.w3.org/1999/xlink">
    <title>16C32293-4200-4462-A385-4C66EBB70E79</title>
    <g id="Home" stroke="none" stroke-width="1" fill="none" fill-rule="evenodd">
        <g id="new-home-page-2" transform="translate(-1170.000000, -131.000000)" fill-rule="nonzero">
            <g id="profile-popup-copy" transform="translate(1150.000000, 72.000000)">
                <g id="slack-new-logo" transform="translate(20.000000, 59.000000)">
                    <path d="M6.59960885,0 C5.60459377,0.000733944954 4.79931549,0.806605505 4.8000504,1.79963303 C4.79931549,2.79266055 5.60532918,3.59853211 6.60034426,3.59926606 L8.40063813,3.59926606 L8.40063813,1.80036697 C8.40137304,0.80733945 7.59535935,0.00146788991 6.59960885,0 C6.60034426,0 6.60034426,0 6.59960885,0 M6.59960885,4.8 L1.80029738,4.8 C0.805282295,4.80073394 -0.000731399849,5.6066055 2.004311e-06,6.59963303 C-0.0014668138,7.59266055 0.804546881,8.39853211 1.79956196,8.4 L6.59960885,8.4 C7.59462393,8.39926606 8.40063763,7.5933945 8.39990272,6.60036697 C8.40063763,5.6066055 7.59462393,4.80073394 6.59960885,4.8 Z" id="Shape" fill="#36C5F0"></path>
                    <path d="M17.9999965,6.59963303 C18.0007314,5.6066055 17.1947177,4.80073394 16.1997026,4.8 C15.2046875,4.80073394 14.3986738,5.6066055 14.3994088,6.59963303 L14.3994088,8.4 L16.1997026,8.4 C17.1947177,8.39926606 18.0007314,7.5933945 17.9999965,6.59963303 Z M13.1999496,6.59963303 L13.1999496,1.79963303 C13.2006845,0.80733945 12.3954062,0.00146788991 11.4003912,0 C10.4053761,0.000733944954 9.59936237,0.806605505 9.60009578,1.79963303 L9.60009578,6.59963303 C9.59862696,7.59266055 10.4046407,8.39853211 11.3996557,8.4 C12.3946708,8.39926606 13.2006845,7.5933945 13.1999496,6.59963303 Z" id="Shape" fill="#2EB67D"></path>
                    <path d="M11.3996557,18 C12.3946708,17.9992661 13.2006845,17.1933945 13.1999496,16.200367 C13.2006845,15.2073394 12.3946708,14.4014679 11.3996557,14.4007339 L9.59936187,14.4007339 L9.59936187,16.200367 C9.59862696,17.1926606 10.4046407,17.9985321 11.3996557,18 Z M11.3996557,13.1992661 L16.1997026,13.1992661 C17.1947177,13.1985321 18.0007314,12.3926606 17.999998,11.399633 C18.0014668,10.4066055 17.1954531,9.60073394 16.200438,9.59926606 L11.4003912,9.59926606 C10.4053761,9.6 9.59936237,10.4058716 9.60009728,11.3988991 C9.59936237,12.3926606 10.4046407,13.1985321 11.3996557,13.1992661 L11.3996557,13.1992661 Z" id="Shape" fill="#ECB22E"></path>
                    <path d="M3.51125755e-06,11.399633 C-0.000731399849,12.3926606 0.805282295,13.1985321 1.80029738,13.1992661 C2.79531246,13.1985321 3.60132615,12.3926606 3.60059124,11.399633 L3.60059124,9.6 L1.80029738,9.6 C0.805282295,9.60073394 -0.000731399849,10.4066055 3.51125755e-06,11.399633 Z M4.80004889,11.399633 L4.80004889,16.199633 C4.79858007,17.1926606 5.60459377,17.9985321 6.59960885,18 C7.59462393,17.9992661 8.40063763,17.1933945 8.39990422,16.200367 L8.39990422,11.4011009 C8.40137304,10.4080734 7.59535935,9.60220183 6.60034426,9.60073394 C5.60459377,9.60073394 4.79931549,10.4066055 4.80004889,11.399633 C4.80004889,11.399633 4.80004889,11.400367 4.80004889,11.399633" id="Shape" fill="#E01E5A"></path>
                </g>
            </g>
        </g>
    </g>
</svg>
